<svg width="474" height="271" viewBox="0 0 474 271" fill="none" xmlns="http://www.w3.org/2000/svg">
<path d="M71.3333 48C67.3333 49.0667 67.3333 49.0667 72.4 49.2C75.3333 49.3333 78.4 50.4 80 52C82.5333 54.5333 82.6667 56.4 82.6667 122.133C82.6667 191.6 82.1333 198.933 77.3333 203.333C74.2667 206 69.8667 204.933 68.6667 201.2C66.9333 195.733 61.2 190.667 56.8 190.667C51.4667 190.667 49.3333 192.667 49.3333 198C49.3333 205.2 53.4667 208 64.4 208C79.8667 208 91.8667 200 97.6 185.6C100.533 178.133 100.667 176.667 101.333 114.933C102 46.5333 101.733 49.6 109.333 49.2L112.667 49.0667L109.333 48C105.067 46.6667 76.6667 46.6667 71.3333 48Z" fill="white"/>
<path d="M190 51.2C184 65.3333 151.067 138 147.067 145.467C141.733 155.867 137.867 159.867 131.733 161.333C129.067 162 136.133 162.4 150 162.4C166.533 162.4 171.067 162 166.667 161.2C159.6 159.867 153.333 153.867 153.333 148.533C153.333 146.667 155.867 139.2 159.067 131.867L164.667 118.667H188H211.333L219.733 135.867C224.267 145.333 228 154.267 228 155.733C228 159.067 225.733 160.933 220.667 161.733C218.533 162 226.933 162.4 239.333 162.4C259.6 162.533 261.6 162.4 257.733 160.667C255.467 159.733 252.133 157.067 250.4 154.667C248.8 152.4 235.6 127.333 221.333 99.0667C207.067 70.6667 194.533 47.2 193.6 46.9333C192.667 46.6667 191.067 48.5333 190 51.2ZM198 92C203.6 103.067 207.733 112.667 207.333 113.333C206.267 115.067 169.733 115.067 168.667 113.333C167.733 111.867 185.333 72 186.933 72C187.467 72 192.533 81.0667 198 92Z" fill="white"/>
<path d="M279.333 48L275.333 49.0667L279.733 49.2C282 49.2 285.2 50.5333 286.667 52C289.2 54.5333 289.333 56.4 289.333 105.067C289.333 145.467 288.933 156 287.467 158C286.533 159.333 283.2 160.8 279.867 161.333C276.4 162 283.867 162.4 298 162.4C312 162.4 319.867 162 316.933 161.333C307.733 159.6 307.333 158.8 306.933 132.533C306.533 112.667 306.8 108.667 308.667 105.867C309.867 104 311.333 102.667 312 102.933C312.533 103.2 323.2 116.533 335.6 132.667L358.133 162L375.333 162.267C392.133 162.533 392.4 162.533 386 160.667C380.8 159.333 377.867 157.333 372.667 151.733C364.8 143.2 325.333 91.4667 325.333 89.6C325.333 88.9334 332.267 81.7334 340.667 73.6C356.933 57.8667 367.6 51.2 378.8 49.6C384 48.9334 384.267 48.6667 381.333 47.8667C376.667 46.5334 345.2 46.6667 342 48C339.6 49.0667 339.6 49.2 342.8 49.2C348 49.3334 351.067 53.4667 349.467 57.8667C348 61.6 310.267 100 308 100C306.133 100 306.267 59.8667 308.133 55.0667C309.867 50.5334 311.467 49.4667 316.667 49.2L320.667 49.0667L316.667 48C314.533 47.4667 306.133 46.9333 298 46.9333C290 46.9333 281.6 47.4667 279.333 48Z" fill="white"/>
<path d="M150.933 208.8C147.2 211.467 146.8 219.867 150.4 223.067C153.733 226.133 160.4 225.867 163.333 222.667C166.267 219.467 165.067 219.2 160.667 222.133C156.933 224.667 152.667 223.6 150.533 219.733C146.8 212.933 154.133 205.6 160.533 209.867C165.067 212.8 166.267 212.533 163.333 209.333C160.4 206.133 155.067 205.867 150.933 208.8Z" fill="white"/>
<path d="M258.667 211.2C258.667 212.267 257.867 213.467 257.067 213.733C255.733 214.267 255.733 214.533 257.067 214.533C258 214.667 258.667 216.667 258.667 220C258.667 222.933 259.333 225.333 260 225.333C260.8 225.333 261.333 222.933 261.333 220.133C261.333 217.2 262 214.533 263.067 214.267C264.4 213.733 264.4 213.467 263.067 213.467C262.133 213.333 261.333 212.4 261.333 211.333C261.333 210.267 260.8 209.333 260 209.333C259.333 209.333 258.667 210.133 258.667 211.2Z" fill="white"/>
<path d="M170.933 214.933C168.8 217.067 168.933 222 171.2 224C174 226.133 178.667 225.2 180.8 222C184.4 216.533 175.6 210.267 170.933 214.933ZM179.067 217.6C180.133 219.2 180 220.4 178.8 221.867C176.4 224.8 173.733 224.533 172 221.2C169.067 215.867 175.867 212.4 179.067 217.6Z" fill="white"/>
<path d="M186.8 219.6C186.933 225.867 186.933 225.867 188 221.333C188.667 218.933 190.133 216 191.467 215.067C193.6 213.467 193.467 213.333 190.267 213.333C186.8 213.333 186.667 213.6 186.8 219.6Z" fill="white"/>
<path d="M196 222.933C196 228.133 196.533 232 197.333 232C198.133 232 198.667 230.267 198.667 228.267C198.667 224.8 199.067 224.533 202.667 225.067C205.867 225.467 206.933 225.067 208.133 222.267C210.533 216.933 207.867 213.333 201.333 213.6L196 213.733V222.933ZM204.533 215.467C207.333 216.533 207.333 222.133 204.533 223.2C200.267 224.8 196.933 219.6 200.267 216.267C202.133 214.4 201.867 214.4 204.533 215.467Z" fill="white"/>
<path d="M215.2 214.4C210.8 217.467 213.6 225.333 219.2 225.333C222.933 225.333 225.333 222.933 225.333 219.333C225.333 214.4 219.467 211.467 215.2 214.4ZM222 219.333C222 222.4 221.333 223.333 219.467 223.333C215.733 223.333 213.733 219.467 216 216.667C218.8 213.333 222 214.8 222 219.333Z" fill="white"/>
<path d="M229.333 219.333C229.333 222.667 230 225.333 230.667 225.333C231.467 225.333 232 223.733 232 221.733C232 219.867 232.933 217.067 234.267 215.733C236.267 213.467 236.267 213.333 232.933 213.333C229.6 213.333 229.333 213.733 229.333 219.333Z" fill="white"/>
<path d="M239.867 216.133C238.8 218.267 238.8 219.867 239.867 222.133C241.067 224.8 242.133 225.333 246.667 225.067L252 224.933V219.333C252 213.733 252 213.733 246.667 213.6C242.533 213.467 241.067 214 239.867 216.133ZM247.2 215.467C249.867 216.533 250 222.133 247.333 223.2C242.533 225.067 239.2 220 242.933 216.267C244.8 214.4 244.533 214.4 247.2 215.467Z" fill="white"/>
<path d="M268.4 219.333C268.4 222.933 268.667 224.4 268.933 222.267C269.2 220.267 269.2 217.333 268.933 215.6C268.667 214 268.4 215.6 268.4 219.333Z" fill="white"/>
<path d="M276.267 214.933C275.333 215.867 274.667 217.733 274.667 219.333C274.667 220.933 275.333 222.8 276.267 223.733C280 227.467 286.667 224.667 286.667 219.333C286.667 215.733 284.267 213.333 280.667 213.333C279.067 213.333 277.2 214 276.267 214.933ZM284.533 217.6C285.6 219.467 285.467 220.4 283.733 222.133C279.733 226.133 273.733 220.933 277.333 216.533C279.467 214.133 282.533 214.533 284.533 217.6Z" fill="white"/>
<path d="M292.133 219.6C292.267 225.733 292.267 225.867 293.333 221.6C295.333 213.067 300 212.533 300 220.8C300 223.333 300.667 225.333 301.333 225.333C303.2 225.333 302.933 216.8 301.067 214.933C300.133 214 297.733 213.333 295.733 213.333C292.133 213.333 292 213.6 292.133 219.6Z" fill="white"/>
</svg>
